# xmcd
#
# Track frame offsets: 
#        150
#        19662
#        27155
#        32044
#        44710
#        63569
#        91743
#        108196
#        134819
#        154893
#        171499
#        190566
#        212523
#        220395
#        249170
#
# Disc length: 3638 seconds
#
# Revision: 0
# Processed by: cddbd v1.5.2PL0 Copyright (c) Steve Scherf et al.
# Submitted via: ExactAudioCopyFreeDBPlugin 1.0
#
DISCID=d00e340f
DTITLE=Lindell Cooley - Revival At Brownsville
DYEAR=1996
DGENRE=Gospel
TTITLE0=We've Come To Praise Him
TTITLE1=Enemy's Camp
TTITLE2=Can You Believe
TTITLE3=Look What The Lord Has Done
TTITLE4=Revival Fire Fall
TTITLE5=We Will Ride
TTITLE6=We Shall See The King
TTITLE7=Holy, Holy, Holy
TTITLE8=More Of Your Glory
TTITLE9=The Lord Reigns
TTITLE10=New Every Morning
TTITLE11=Spirit Of The Sovereign God
TTITLE12=Awesome God
TTITLE13=I Need You More
TTITLE14=Take A Little Time
EXTD=
EXTT0=
EXTT1=
EXTT2=
EXTT3=
EXTT4=
EXTT5=
EXTT6=
EXTT7=
EXTT8=
EXTT9=
EXTT10=
EXTT11=
EXTT12=
EXTT13=
EXTT14=
PLAYORDER=
